<?xml version="1.0" encoding="UTF-8" ?>
<!DOCTYPE svg PUBLIC "-//W3C//DTD SVG 1.1//EN" "http://www.w3.org/Graphics/SVG/1.1/DTD/svg11.dtd">
<svg width="3600pt" height="3600pt" viewBox="0 0 3600 3600" version="1.1" xmlns="http://www.w3.org/2000/svg">
<g id="#d21d29ff">
</g>
<g id="#ffffffff">
<path fill="#ffffff" opacity="1.00" d=" M 968.01 949.09 C 979.74 945.78 991.96 944.82 1004.06 943.70 C 1012.23 943.39 1020.50 942.91 1028.60 944.38 C 1033.85 945.53 1039.23 945.84 1044.53 946.68 C 1053.42 949.13 1062.64 950.86 1070.94 955.08 C 1088.62 962.25 1104.77 973.30 1117.62 987.42 C 1124.75 994.95 1130.98 1003.43 1135.46 1012.81 C 1139.70 1018.42 1141.37 1025.37 1144.29 1031.67 C 1146.96 1042.49 1149.98 1053.32 1150.72 1064.50 C 1152.04 1075.40 1151.56 1086.39 1151.54 1097.35 C 1151.71 1106.15 1149.92 1114.81 1149.32 1123.56 C 1148.48 1130.01 1146.43 1136.21 1145.71 1142.69 C 1139.78 1169.07 1130.54 1194.63 1118.98 1219.02 C 1116.38 1226.10 1112.28 1232.43 1109.14 1239.24 C 1104.02 1249.25 1098.27 1258.91 1092.72 1268.69 C 1090.17 1273.66 1086.52 1277.95 1083.88 1282.88 C 1079.72 1290.54 1074.08 1297.24 1069.81 1304.84 C 1034.45 1356.99 994.26 1405.61 954.07 1454.03 C 963.91 1449.80 974.33 1447.34 984.58 1444.36 C 996.82 1440.61 1009.51 1438.67 1021.98 1435.85 C 1072.79 1426.94 1124.45 1423.73 1175.98 1423.59 C 1227.30 1422.97 1278.63 1423.37 1329.96 1423.26 C 1410.31 1423.26 1490.67 1423.24 1571.02 1423.27 C 1574.63 1423.14 1578.62 1423.90 1581.10 1426.79 C 1584.32 1429.90 1584.28 1434.76 1584.27 1438.93 C 1584.27 1522.27 1584.28 1605.62 1584.28 1688.96 C 1584.18 1699.84 1584.64 1710.77 1583.50 1721.61 C 1582.16 1727.08 1576.15 1729.52 1570.98 1729.24 C 1413.94 1729.26 1256.91 1729.17 1099.87 1729.24 C 1099.17 1742.16 1099.64 1755.10 1099.51 1768.04 C 1099.63 1802.17 1099.26 1836.32 1099.69 1870.44 C 1241.79 1870.58 1383.90 1870.44 1526.01 1870.48 C 1543.57 1870.36 1561.51 1871.24 1578.58 1866.31 C 1583.70 1865.48 1588.26 1862.93 1592.95 1860.88 C 1599.30 1858.49 1604.17 1853.58 1609.65 1849.77 C 1613.72 1845.50 1617.78 1841.12 1621.22 1836.33 C 1627.48 1824.54 1634.19 1812.99 1640.04 1801.00 C 1666.17 1748.86 1692.28 1696.71 1718.45 1644.60 C 1726.16 1629.39 1733.69 1614.07 1742.27 1599.33 C 1748.74 1587.09 1756.65 1575.71 1763.94 1563.96 C 1770.02 1555.40 1776.35 1547.02 1782.59 1538.58 C 1788.44 1531.79 1794.39 1525.08 1800.34 1518.38 C 1804.67 1513.03 1810.24 1508.89 1815.06 1504.01 C 1820.18 1499.49 1824.87 1494.44 1830.52 1490.56 C 1837.24 1485.65 1843.87 1480.60 1850.64 1475.75 C 1857.52 1471.58 1864.58 1467.71 1871.54 1463.67 C 1879.05 1458.95 1887.50 1456.11 1895.53 1452.40 C 1908.34 1446.33 1922.16 1442.90 1935.59 1438.47 C 1949.04 1435.56 1962.35 1431.82 1976.05 1430.14 C 2009.71 1424.53 2043.91 1423.13 2077.99 1423.30 C 2143.63 1423.21 2209.28 1423.27 2274.93 1423.26 C 2328.63 1423.36 2382.33 1422.97 2436.03 1423.68 C 2463.07 1423.70 2490.08 1425.29 2517.03 1427.42 C 2543.27 1429.96 2569.52 1433.08 2595.28 1438.81 C 2602.00 1440.26 2608.81 1441.38 2615.40 1443.45 C 2625.66 1446.53 2636.22 1448.77 2646.15 1452.88 C 2657.54 1457.24 2669.16 1461.11 2679.74 1467.29 C 2713.99 1483.41 2743.56 1510.08 2761.47 1543.59 C 2771.87 1562.98 2778.87 1584.21 2782.21 1605.94 C 2783.28 1615.31 2785.64 1624.57 2785.62 1634.04 C 2787.42 1659.30 2786.52 1684.66 2786.74 1709.97 C 2786.74 1770.65 2786.74 1831.33 2786.74 1892.01 C 2786.58 1916.98 2787.29 1942.00 2785.65 1966.94 C 2785.64 1973.69 2784.02 1980.31 2783.28 1987.01 C 2779.52 2017.98 2768.73 2048.28 2750.84 2073.93 C 2748.26 2077.40 2745.42 2080.71 2743.47 2084.60 C 2741.25 2089.52 2737.73 2093.69 2735.60 2098.65 C 2730.70 2105.97 2726.54 2113.83 2720.77 2120.53 C 2714.36 2130.37 2706.11 2138.73 2698.81 2147.88 C 2686.44 2161.79 2673.22 2174.92 2659.97 2187.97 C 2653.65 2193.67 2648.00 2200.06 2641.33 2205.37 C 2634.12 2212.52 2626.16 2218.83 2618.91 2225.93 C 2603.96 2239.29 2589.28 2252.95 2574.05 2265.99 C 2566.33 2273.65 2557.91 2280.54 2550.13 2288.13 C 2543.87 2294.20 2537.14 2299.78 2531.01 2306.00 C 2524.96 2311.63 2519.47 2317.83 2513.43 2323.47 C 2508.08 2328.42 2503.57 2334.15 2498.36 2339.24 C 2493.67 2343.58 2489.93 2348.80 2485.57 2353.45 C 2478.23 2360.93 2472.13 2369.49 2465.31 2377.43 C 2459.31 2385.43 2452.95 2393.22 2447.83 2401.84 C 2442.63 2407.54 2439.33 2414.63 2435.10 2421.03 C 2429.76 2429.88 2424.43 2438.79 2420.34 2448.32 C 2416.85 2453.82 2415.44 2460.28 2412.09 2465.86 C 2409.11 2473.45 2406.45 2481.18 2403.76 2488.88 C 2401.51 2499.30 2397.93 2509.43 2396.79 2520.08 C 2396.00 2527.38 2395.12 2534.68 2394.82 2542.03 C 2395.58 2545.59 2394.84 2549.39 2396.07 2552.95 C 2397.75 2568.13 2405.72 2582.76 2418.11 2591.85 C 2425.27 2598.52 2434.71 2601.96 2443.80 2605.16 C 2454.83 2608.74 2466.51 2609.31 2478.01 2610.21 C 2487.40 2610.72 2496.64 2608.76 2506.00 2608.40 C 2509.71 2608.19 2513.18 2606.58 2516.91 2606.38 C 2521.73 2605.91 2526.40 2604.54 2530.98 2602.98 C 2548.74 2599.17 2565.61 2592.31 2582.18 2585.01 C 2591.29 2580.80 2599.96 2575.75 2608.66 2570.72 C 2614.40 2567.63 2619.16 2563.08 2624.86 2559.88 C 2640.86 2548.08 2656.14 2535.25 2669.97 2520.95 C 2675.91 2515.87 2680.32 2509.34 2685.66 2503.68 C 2692.71 2496.24 2698.10 2487.46 2704.63 2479.61 C 2712.44 2468.14 2719.11 2455.95 2725.91 2443.89 C 2727.49 2439.34 2730.24 2435.31 2731.72 2430.73 C 2733.24 2425.21 2736.39 2420.28 2737.45 2414.62 C 2741.78 2399.78 2745.71 2384.55 2744.79 2368.95 C 2745.09 2367.82 2745.42 2366.72 2745.75 2365.63 C 2748.61 2363.29 2752.37 2361.95 2756.05 2363.20 C 2759.63 2364.42 2763.84 2365.76 2765.64 2369.45 C 2768.34 2373.47 2767.07 2378.46 2767.55 2383.00 C 2767.11 2391.15 2770.04 2398.87 2771.30 2406.81 C 2773.82 2416.05 2776.18 2425.37 2780.10 2434.15 C 2781.14 2438.60 2784.05 2442.24 2785.50 2446.56 C 2789.91 2457.02 2795.75 2466.77 2801.40 2476.61 C 2805.46 2483.98 2810.87 2490.47 2815.34 2497.62 C 2821.71 2505.85 2828.09 2514.14 2835.43 2521.56 C 2841.14 2527.23 2846.17 2533.48 2852.61 2538.37 C 2859.47 2543.57 2865.62 2549.74 2873.27 2553.84 C 2886.46 2562.15 2900.59 2569.74 2916.14 2572.34 C 2927.49 2575.31 2939.28 2574.98 2950.91 2574.57 C 2962.70 2573.10 2973.96 2568.98 2984.35 2563.30 C 2994.86 2557.36 3003.75 2548.82 3011.28 2539.46 C 3014.67 2535.27 3016.91 2530.35 3019.87 2525.89 C 3023.80 2520.93 3024.83 2514.49 3028.03 2509.12 C 3029.94 2502.06 3032.35 2495.13 3033.85 2487.97 C 3036.57 2475.83 3037.57 2463.32 3037.75 2450.89 C 3037.78 2443.88 3036.62 2436.97 3036.45 2430.00 C 3036.42 2424.55 3034.42 2419.38 3033.98 2413.99 C 3033.72 2408.38 3030.93 2403.38 3030.14 2397.89 C 3028.46 2391.17 3026.32 2384.57 3024.07 2378.03 C 3023.34 2373.86 3020.76 2370.39 3019.63 2366.38 C 3011.51 2345.23 3000.66 2325.28 2989.34 2305.70 C 2986.04 2298.88 2981.13 2293.07 2977.24 2286.61 C 2973.76 2280.62 2968.93 2275.61 2965.17 2269.82 C 2962.83 2266.25 2959.95 2263.12 2957.08 2260.02 C 2945.21 2245.01 2931.61 2231.45 2918.43 2217.63 C 2902.33 2201.64 2885.45 2186.46 2868.08 2171.90 C 2861.75 2165.80 2854.45 2160.85 2847.76 2155.18 C 2841.60 2149.60 2834.50 2145.22 2828.01 2140.06 C 2820.20 2134.87 2812.93 2128.92 2804.77 2124.28 C 2799.93 2120.85 2794.16 2119.19 2789.25 2115.93 C 2792.95 2111.13 2799.87 2113.14 2804.96 2114.05 C 2810.17 2115.96 2815.73 2116.85 2820.81 2119.19 C 2833.71 2125.76 2846.80 2132.03 2858.84 2140.13 C 2868.18 2145.68 2877.28 2151.60 2886.22 2157.78 C 2893.66 2163.70 2901.74 2168.79 2909.02 2174.93 C 2913.66 2178.59 2918.01 2182.62 2922.79 2186.14 C 2925.78 2188.16 2927.89 2191.19 2930.83 2193.32 C 2945.32 2205.70 2958.94 2219.11 2971.75 2233.21 C 2978.82 2240.19 2984.66 2248.30 2991.38 2255.65 C 2997.40 2263.59 3004.05 2271.05 3009.48 2279.43 C 3015.08 2286.61 3020.05 2294.25 3024.86 2301.99 C 3030.90 2310.01 3034.96 2319.30 3040.30 2327.77 C 3054.66 2354.81 3066.60 2383.33 3073.58 2413.20 C 3074.58 2419.22 3076.84 2424.99 3077.31 2431.12 C 3077.62 2436.51 3079.29 2441.72 3079.39 2447.15 C 3079.52 2455.11 3080.64 2463.03 3080.39 2471.01 C 3080.30 2480.53 3079.06 2489.99 3077.59 2499.40 C 3075.75 2506.89 3073.58 2514.30 3071.54 2521.74 C 3070.12 2525.21 3068.31 2528.53 3067.16 2532.12 C 3065.54 2536.81 3062.15 2540.55 3060.07 2545.02 C 3055.90 2552.24 3050.85 2558.98 3045.06 2564.99 C 3037.81 2573.19 3029.29 2580.29 3019.80 2585.76 C 3008.31 2592.74 2995.86 2598.27 2982.60 2600.84 C 2976.62 2602.92 2970.29 2603.62 2964.01 2603.87 C 2951.03 2605.75 2937.86 2604.52 2924.97 2602.60 C 2916.26 2600.86 2907.77 2598.26 2899.27 2595.78 C 2884.65 2589.68 2869.73 2583.61 2857.03 2573.94 C 2847.18 2567.73 2838.03 2560.42 2829.84 2552.18 C 2823.34 2547.31 2818.78 2540.53 2812.96 2535.00 C 2808.50 2530.38 2805.21 2524.85 2801.05 2520.00 C 2796.49 2514.41 2793.09 2508.01 2788.73 2502.28 C 2780.04 2488.12 2772.05 2473.50 2765.94 2458.02 C 2762.29 2451.10 2759.75 2443.72 2757.42 2436.29 C 2756.94 2436.26 2756.00 2436.20 2755.52 2436.18 C 2754.37 2441.80 2751.69 2446.88 2748.94 2451.87 C 2744.47 2461.55 2739.56 2471.02 2734.37 2480.32 C 2731.84 2483.32 2730.35 2486.95 2728.23 2490.21 C 2697.31 2540.31 2655.16 2584.20 2603.98 2613.84 C 2589.01 2622.28 2573.54 2629.95 2557.14 2635.24 C 2552.35 2636.37 2548.05 2639.04 2543.13 2639.69 C 2532.29 2642.52 2521.27 2644.97 2510.07 2645.77 C 2507.09 2646.36 2504.01 2646.31 2501.12 2647.20 C 2488.08 2648.20 2475.04 2646.94 2462.09 2645.52 C 2456.70 2644.47 2451.16 2644.15 2445.95 2642.37 C 2440.88 2641.37 2436.29 2638.94 2431.38 2637.52 C 2416.09 2632.58 2401.95 2624.43 2389.49 2614.33 C 2374.18 2602.50 2362.10 2586.77 2353.49 2569.54 C 2349.83 2561.97 2347.57 2553.86 2344.83 2545.95 C 2344.14 2540.56 2342.39 2535.39 2341.94 2529.98 C 2341.10 2516.47 2341.21 2502.91 2343.18 2489.49 C 2345.52 2476.50 2347.80 2463.45 2351.75 2450.82 C 2353.61 2446.95 2354.03 2442.59 2355.72 2438.66 C 2359.89 2429.17 2363.32 2419.38 2368.01 2410.14 C 2370.77 2405.17 2372.78 2399.81 2376.10 2395.15 C 2384.10 2379.66 2394.17 2365.40 2404.20 2351.18 C 2415.85 2335.34 2428.59 2320.32 2441.60 2305.57 C 2448.21 2299.51 2453.31 2291.99 2460.16 2286.17 C 2472.18 2273.54 2484.58 2261.26 2497.59 2249.67 C 2527.93 2221.50 2559.72 2194.97 2591.65 2168.68 C 2595.44 2165.80 2598.77 2162.30 2603.00 2160.02 C 2592.88 2161.58 2583.01 2164.48 2572.85 2165.78 C 2519.41 2174.67 2465.11 2176.76 2411.02 2177.01 C 2289.35 2177.19 2167.67 2177.05 2046.00 2177.13 C 2042.51 2177.08 2039.01 2177.13 2035.60 2176.53 C 2030.00 2175.31 2026.23 2169.57 2026.63 2163.98 C 2026.69 2069.24 2026.45 1974.51 2026.74 1879.77 C 2028.15 1874.28 2033.20 1870.22 2038.95 1870.51 C 2180.96 1870.43 2322.97 1870.52 2464.98 1870.50 C 2477.91 1870.29 2490.87 1870.98 2503.78 1870.02 C 2503.73 1823.09 2503.88 1776.16 2503.70 1729.23 C 2361.15 1729.18 2218.60 1729.26 2076.06 1729.23 C 2063.31 1729.23 2050.46 1729.26 2037.94 1731.86 C 2032.31 1733.61 2026.31 1734.35 2021.12 1737.28 C 2016.87 1739.60 2012.09 1741.09 2008.45 1744.40 C 2003.95 1748.26 1998.74 1751.40 1995.46 1756.48 C 1987.11 1765.49 1982.94 1777.26 1976.93 1787.79 C 1946.68 1847.67 1916.99 1907.84 1886.76 1967.73 C 1882.32 1976.30 1878.22 1985.05 1873.33 1993.38 C 1868.47 2001.79 1864.06 2010.48 1858.68 2018.58 C 1852.45 2028.02 1846.81 2037.88 1839.77 2046.76 C 1833.94 2054.25 1828.80 2062.30 1822.17 2069.12 C 1814.92 2077.21 1808.06 2085.69 1799.86 2092.87 C 1792.63 2098.92 1786.33 2106.08 1778.45 2111.36 C 1769.56 2117.50 1761.34 2124.68 1751.70 2129.66 C 1742.76 2134.46 1734.28 2140.22 1724.76 2143.88 C 1715.07 2147.82 1705.71 2152.65 1695.59 2155.43 C 1685.73 2158.34 1676.09 2162.08 1665.96 2163.99 C 1656.33 2165.97 1646.81 2168.64 1637.04 2169.85 C 1623.72 2171.80 1610.43 2173.96 1596.98 2174.68 C 1580.72 2176.54 1564.34 2176.31 1548.02 2177.13 C 1427.70 2177.06 1307.37 2177.18 1187.07 2177.02 C 1135.92 2176.59 1084.60 2174.57 1034.04 2166.37 C 1020.95 2164.60 1008.13 2161.34 995.19 2158.79 C 985.27 2156.23 975.46 2153.25 965.60 2150.51 C 957.01 2147.51 948.59 2144.03 940.06 2140.87 C 933.20 2138.49 927.02 2134.60 920.54 2131.40 C 893.89 2118.46 870.45 2098.87 853.16 2074.80 C 835.00 2049.11 824.01 2018.64 820.18 1987.50 C 818.75 1978.37 817.28 1969.23 817.44 1959.97 C 815.96 1937.68 816.75 1915.31 816.56 1892.98 C 816.56 1836.98 816.56 1780.98 816.56 1724.98 C 816.66 1699.31 816.30 1673.64 816.83 1647.98 C 816.88 1644.60 816.52 1641.25 816.37 1637.90 C 816.57 1640.32 816.75 1642.76 817.24 1645.17 C 817.71 1637.77 817.26 1630.31 818.67 1623.00 C 820.51 1612.07 821.30 1600.94 824.28 1590.24 C 826.41 1580.28 830.34 1570.82 832.76 1560.94 C 834.92 1547.64 839.95 1535.06 844.61 1522.48 C 858.64 1488.63 878.90 1457.81 899.80 1427.86 C 913.57 1408.07 928.66 1389.25 942.77 1369.71 C 949.50 1361.08 955.78 1352.11 962.70 1343.62 C 967.23 1338.12 971.25 1332.22 975.42 1326.45 C 981.95 1318.24 987.80 1309.53 994.12 1301.16 C 999.43 1293.74 1004.84 1286.38 1009.76 1278.70 C 1014.27 1271.89 1019.29 1265.41 1023.17 1258.20 C 1026.81 1252.46 1031.07 1247.09 1034.06 1240.95 C 1037.15 1234.93 1041.41 1229.62 1044.28 1223.50 C 1052.04 1209.17 1059.82 1194.79 1065.85 1179.63 C 1069.10 1173.53 1071.42 1166.98 1073.66 1160.46 C 1079.84 1145.15 1084.17 1129.15 1087.62 1113.02 C 1089.63 1107.16 1089.75 1100.96 1090.82 1094.91 C 1093.18 1086.77 1091.83 1078.17 1093.23 1069.89 C 1093.85 1058.13 1092.58 1046.39 1091.17 1034.74 C 1090.24 1027.57 1087.04 1021.10 1084.78 1014.32 C 1079.99 1005.56 1073.72 997.29 1065.31 991.71 C 1061.87 989.32 1057.94 987.77 1054.40 985.56 C 1046.02 982.08 1037.05 980.51 1028.08 979.38 C 1010.68 978.97 992.90 980.58 976.44 986.49 C 969.61 987.62 963.43 990.82 956.98 993.14 C 952.16 994.57 947.96 997.38 943.41 999.43 C 930.41 1005.19 918.25 1012.55 906.57 1020.61 C 900.49 1023.99 895.34 1028.69 889.71 1032.71 C 881.68 1039.66 873.13 1046.11 866.25 1054.27 C 859.37 1060.07 854.10 1067.41 848.07 1074.05 C 842.87 1079.88 838.64 1086.48 833.62 1092.46 C 829.46 1098.03 826.05 1104.12 821.78 1109.60 C 816.12 1119.42 810.15 1129.05 805.19 1139.25 C 802.90 1143.12 801.83 1147.59 799.24 1151.31 C 794.72 1161.70 790.69 1172.33 787.44 1183.19 C 782.78 1195.61 780.58 1208.81 778.74 1221.91 C 778.44 1230.94 776.92 1239.94 777.55 1249.01 C 777.66 1256.05 778.89 1263.03 780.25 1269.93 C 780.64 1273.10 777.32 1274.68 775.11 1276.15 C 770.86 1277.64 766.41 1276.00 762.31 1274.81 C 757.06 1271.66 756.49 1265.16 755.25 1259.78 C 753.98 1250.91 749.24 1243.16 746.10 1234.90 C 741.91 1226.56 737.83 1218.13 732.44 1210.48 C 711.59 1179.12 685.13 1151.19 653.60 1130.38 C 651.08 1127.58 647.32 1126.84 644.53 1124.39 C 636.64 1120.35 629.05 1115.79 620.82 1112.50 C 611.38 1109.32 602.12 1105.26 592.20 1103.84 C 585.69 1101.68 578.75 1102.35 572.02 1101.83 C 561.16 1101.22 550.45 1103.56 539.96 1106.05 C 534.57 1106.99 530.08 1110.32 524.95 1112.04 C 517.22 1116.74 509.69 1121.89 503.14 1128.18 C 494.03 1138.28 486.08 1149.77 481.92 1162.84 C 480.76 1166.88 478.49 1170.55 477.84 1174.75 C 477.10 1180.21 474.98 1185.42 474.82 1190.98 C 474.64 1197.98 473.27 1204.93 473.67 1211.95 C 474.20 1225.70 475.29 1239.62 479.17 1252.89 C 481.03 1259.04 482.20 1265.41 484.56 1271.42 C 485.67 1274.61 487.24 1277.64 488.15 1280.92 C 489.72 1286.54 493.59 1291.10 495.39 1296.64 C 498.79 1303.45 502.58 1310.07 506.18 1316.79 C 510.66 1322.50 513.87 1329.08 518.21 1334.91 C 528.74 1349.76 540.11 1364.01 552.27 1377.58 C 557.41 1384.41 564.09 1389.86 569.81 1396.18 C 575.01 1401.31 580.69 1405.93 585.87 1411.09 C 590.44 1414.82 595.25 1418.28 599.58 1422.32 C 614.64 1433.75 630.02 1444.78 645.73 1455.27 C 670.30 1471.17 695.61 1485.88 721.58 1499.35 C 730.81 1504.39 740.45 1508.67 750.07 1512.93 C 756.25 1516.43 763.11 1518.51 769.64 1521.30 C 774.48 1523.44 780.05 1523.28 784.72 1525.91 C 783.69 1528.61 780.65 1529.43 778.15 1530.17 C 770.95 1531.46 763.70 1529.75 756.51 1529.34 C 751.70 1528.67 747.26 1526.57 742.54 1525.57 C 738.25 1524.90 734.43 1522.64 730.13 1522.02 C 714.01 1516.42 698.13 1510.24 682.40 1503.64 C 675.21 1499.52 667.31 1496.83 660.06 1492.82 C 650.89 1487.76 641.34 1483.31 632.58 1477.58 C 614.85 1467.77 597.93 1456.49 581.78 1444.26 C 577.58 1441.91 574.28 1438.38 570.43 1435.57 C 557.60 1425.84 545.54 1415.19 533.98 1404.03 C 526.67 1397.70 520.56 1390.14 513.49 1383.56 C 506.56 1375.77 499.94 1367.73 493.20 1359.78 C 486.77 1350.86 479.81 1342.35 473.93 1333.05 C 466.28 1320.87 458.55 1308.68 452.61 1295.56 C 449.76 1291.00 448.54 1285.68 445.90 1281.02 C 443.27 1276.27 442.16 1270.91 440.16 1265.91 C 437.98 1260.36 436.35 1254.62 435.22 1248.78 C 432.00 1237.81 429.83 1226.48 429.30 1215.05 C 427.77 1204.04 429.67 1193.02 430.31 1182.02 C 431.31 1176.57 432.48 1171.15 433.77 1165.76 C 436.63 1158.03 439.06 1150.13 442.82 1142.77 C 450.79 1127.86 460.96 1113.75 474.79 1103.74 C 481.36 1097.29 489.62 1093.04 497.63 1088.69 C 502.94 1086.83 507.59 1083.44 513.07 1082.04 C 522.23 1079.39 531.34 1076.31 540.89 1075.40 C 545.81 1074.28 550.89 1074.69 555.86 1073.97 C 565.70 1073.36 575.49 1075.03 585.30 1075.59 C 597.97 1078.27 610.69 1080.90 622.87 1085.47 C 634.04 1090.21 645.27 1094.97 655.73 1101.20 C 660.74 1105.02 666.53 1107.65 671.55 1111.47 C 678.22 1116.83 685.73 1121.15 691.58 1127.49 C 697.61 1132.06 702.84 1137.55 708.04 1143.03 C 714.80 1148.97 720.07 1156.29 726.14 1162.88 C 728.75 1165.93 730.86 1169.38 733.42 1172.48 C 738.25 1178.17 741.43 1185.06 746.44 1190.61 C 749.14 1194.96 751.86 1199.35 754.12 1203.96 C 754.64 1204.43 755.68 1205.38 756.20 1205.85 C 757.65 1202.48 757.19 1198.73 758.16 1195.26 C 761.67 1185.14 763.52 1174.53 767.17 1164.47 C 767.91 1159.40 770.93 1155.12 772.16 1150.21 C 773.25 1146.48 774.96 1142.98 776.28 1139.34 C 778.39 1135.25 779.20 1130.62 781.75 1126.74 C 793.71 1098.61 809.65 1072.26 828.18 1047.96 C 834.73 1040.25 840.77 1032.13 847.91 1024.94 C 852.84 1020.18 857.01 1014.65 862.45 1010.43 C 870.03 1002.94 878.22 996.07 886.80 989.76 C 893.31 984.08 900.86 979.83 908.05 975.11 C 910.41 973.32 913.11 972.08 915.76 970.77 C 931.86 960.73 950.04 954.75 968.01 949.09 Z" />
</g>
</svg>
